<svg xmlns:xlink="http://www.w3.org/1999/xlink" xmlns:inkscape="http://www.inkscape.org/namespaces/inkscape" xmlns:sodipodi="http://sodipodi.sourceforge.net/DTD/sodipodi-0.dtd" xmlns="http://www.w3.org/2000/svg" xmlns:svg="http://www.w3.org/2000/svg" width="106.01432" height="18.688524" viewBox="0 0 106.01432 18.688524" id="svg1" xml:space="preserve"><defs id="defs1"><style id="style1">      .cls-1 {        fill: #252829;      }      .cls-2 {        fill: #1a87ff;      }    </style></defs><g inkscape:label="Layer 1" inkscape:groupmode="layer" id="layer1" transform="translate(-52.069566,-133.93684)"><g id="g1" transform="matrix(0.26458333,0,0,0.26458333,48.191845,128.12759)"><path class="cls-1" d="m 50.65,21.96 c 14.38,0 25.95,7.04 31.74,18.33 L 67.53,47.62 C 64.44,41.35 58.65,37.49 50.64,37.49 c -12.06,0 -19.2,9.26 -19.2,19.78 0,10.52 7.14,19.78 19.2,19.78 8.01,0 13.8,-3.86 16.89,-10.13 l 14.86,7.33 C 76.6,85.54 65.02,92.58 50.65,92.58 29.71,92.87 14.37,76.56 14.66,57.27 14.37,37.97 29.71,21.67 50.65,21.96" id="path1"/><path class="cls-1" d="m 112.59,42.8 c -15.15,0 -25.86,10.42 -25.86,24.8 0,14.38 10.71,24.99 25.86,24.99 15.15,0 25.95,-10.61 25.95,-24.99 0,-14.38 -10.9,-24.8 -25.95,-24.8 z m 0,36.09 c -6.56,0 -10.61,-4.73 -10.61,-11.29 0,-6.56 4.05,-11.1 10.61,-11.1 6.56,0 10.71,4.63 10.71,11.1 0,6.47 -4.15,11.29 -10.71,11.29 z" id="path2"/><path class="cls-1" d="m 146.55,91.05 h 15.63 V 67.99 c 0,-6.27 4.25,-9.26 12.74,-8.78 V 43.39 c -6.66,0 -11.58,2.03 -14.38,7.14 v -6.08 h -13.99 z" id="path3"/><path class="cls-1" d="m 228.56,67.6 c 0,-14.38 -9.74,-24.8 -24.7,-24.8 -14.96,0 -25.09,10.42 -25.09,24.89 0,14.47 10.23,24.89 25.09,24.89 9.74,0 18.33,-3.96 22.58,-11.68 L 213.9,74.82 c -2.32,3.09 -5.89,4.83 -9.84,4.83 -5.11,0 -8.4,-2.7 -9.65,-7.24 h 33.77 c 0.29,-1.45 0.38,-2.99 0.38,-4.82 z M 194.6,62.39 c 1.25,-4.25 4.53,-6.75 9.26,-6.75 4.73,0 7.81,2.22 9.07,6.75 z" id="path4"/><polygon class="cls-1" points="281.32,38.37 281.32,23.51 226.61,23.51 226.61,38.37 245.72,38.37 245.72,91.04 262.21,91.04 262.21,38.37 " id="polygon4"/><polygon class="cls-1" points="305.82,75.8 305.82,63.93 332.93,63.93 332.93,50.33 305.82,50.33 305.82,38.75 335.83,38.75 335.83,23.51 289.42,23.51 289.42,91.05 335.83,91.05 335.83,75.8 " id="polygon5"/><path class="cls-2" d="m 400.12,64.93 c 0,0 -0.02,-0.02 -0.02,-0.03 -0.4,-0.43 -0.4,-1.1 0,-1.52 l 9.08,-9.4 6.16,-6.38 c -3.95,-14.76 -17.36,-25.86 -34.68,-25.63 -0.19,0 -0.37,0 -0.56,0 -20.65,0 -35.71,16.19 -35.44,35.31 -0.09,6.17 1.43,12.03 4.21,17.14 4.75,8.75 13.21,15.3 23.75,17.42 l 14.31,-14.81 c 0.42,-0.43 1.09,-0.44 1.53,-0.05 0.02,0.02 0.04,0.02 0.06,0.04 l 1.83,1.83 12.44,12.44 h 11.84 V 79.44 l -2.1,-2.1 z m -1.2,-1.59 c -0.03,0.1 -0.08,0.19 -0.13,0.27 -0.2,0.31 -0.55,0.51 -0.93,0.51 h -9.89 v -14.2 h -14.73 v 14.73 h 14.21 v 10.49 c 0,0.24 -0.08,0.47 -0.21,0.65 -0.13,0.18 -0.32,0.32 -0.54,0.39 -1.85,0.56 -3.86,0.88 -6.05,0.88 -12.06,0 -19.2,-9.07 -19.2,-19.78 0,-9.95 6.18,-18.49 16.76,-19.63 0.79,-0.08 1.6,-0.14 2.44,-0.14 0.05,0 0.1,0 0.16,0 11.87,0.08 18.94,9.11 18.94,19.76 0,2.11 -0.29,4.15 -0.83,6.06 z" id="path5"/></g></g></svg>